<svg width="800" height="511" viewBox="0 0 800 511" fill="none" xmlns="http://www.w3.org/2000/svg">
<g clip-path="url(#clip0)">
<path d="M47.1828 324.61C47.1828 324.61 -78.0357 214.837 79.809 162.966C158.525 137.113 177.027 123.814 238.232 73.76C325.786 2.06494 440.514 -39.3166 589.686 87.0583C738.858 213.433 851.439 252.585 753.23 328.327C642.797 413.485 710.032 457.262 696.155 481.298C692.438 487.658 669.146 460.401 617.77 488.484C500.728 552.498 441.175 455.115 355.108 479.399C273.914 502.361 232.202 451.646 205.771 471.469C166.372 501.039 141.675 500.626 126.89 492.862C114.5 486.337 107.232 472.873 107.81 458.749C108.471 442.725 108.553 412.659 102.11 390.771C92.3639 357.732 68.4931 340.882 47.1828 324.61Z" fill="#F5F5FC"/>
<path d="M48.587 325.932C48.587 325.932 -77.8705 213.846 81.5436 160.818C161.003 134.387 179.67 120.841 241.453 69.6301C329.833 -3.55171 445.635 -45.9245 596.129 83.1761C746.622 212.277 863.994 257.458 761.16 329.731C689.96 379.785 714.079 355.336 691.943 372.517C644.862 408.86 537.815 340.551 450.922 365.413C368.985 388.789 289.277 353.85 253.678 351.454C239.554 350.546 182.643 350.298 153.982 348.811C137.958 347.985 120.282 355.006 97.9806 349.72C64.4458 341.708 70.1451 342.534 48.587 325.932Z" fill="#F8F8FF"/>
<path d="M184.461 117.537L143.409 145.207C142.831 145.538 141.923 139.673 141.345 139.921L113.426 150.659L113.096 351.289L287.791 349.142L286.469 77.2291L233.276 77.6421L184.461 117.537Z" fill="#E9EDFB"/>
<path d="M170.915 124.062L128.129 145.042L128.046 150.659L270.528 149.833L269.95 98.5394L208.497 97.7134L194.785 108.203C192.39 110.021 189.417 112.003 185.7 114.481C179.505 118.528 175.788 121.254 170.915 124.062Z" fill="#B0C0F4"/>
<path d="M128.129 159.001V209.634L270.776 209.386V159.001H128.129Z" fill="#B0C0F4"/>
<path d="M128.542 218.719V269.352L271.106 269.022L271.189 218.719H128.542Z" fill="#B0C0F4"/>
<path d="M129.285 279.264V329.896L271.932 329.649V279.264H129.285Z" fill="#B0C0F4"/>
<path d="M177.77 247.464L184.461 238.708L209.323 260.844L203.045 269.848L177.77 247.464Z" fill="white"/>
<path d="M128.459 228.549L144.566 228.631L144.648 269.435L128.542 269.269L128.459 228.549Z" fill="white"/>
<path d="M163.646 235.487L170.254 231.77L187.021 265.305L180.496 269.765L163.646 235.487Z" fill="#F5F5FC"/>
<path d="M155.882 224.088H163.729L163.894 269.6L155.882 269.352V224.088Z" fill="white"/>
<path d="M144.648 237.965L156.047 238.213L155.882 269.517L144.483 269.269L144.648 237.965Z" fill="#F5F5FC"/>
<path d="M207.092 228.466L223.117 228.549L223.282 269.352L207.092 269.104V228.466Z" fill="white"/>
<path d="M234.515 224.006H242.279L242.527 269.435L234.432 269.269L234.515 224.006Z" fill="white"/>
<path d="M223.282 237.882L234.68 238.047L234.432 269.352L223.034 269.187L223.282 237.882Z" fill="#F5F5FC"/>
<path d="M129.285 283.476L141.592 283.559L141.675 330.309L129.368 330.062L129.285 283.476Z" fill="white"/>
<path d="M141.592 290.497L149.935 290.414L149.687 330.144L141.427 330.062L141.592 290.497Z" fill="#F5F5FC"/>
<path d="M149.935 298.674L161.251 298.839L161.003 330.144L149.604 329.979L149.935 298.674Z" fill="white"/>
<path d="M219.317 143.803V149.668L264.911 149.998V143.803H219.317Z" fill="#F5F5FC"/>
<path d="M219.234 139.178L219.4 143.886L249.135 144.051L248.887 139.012L219.234 139.178Z" fill="white"/>
<path d="M128.211 168.83L144.318 168.913L144.401 209.716L128.211 209.469V168.83Z" fill="white"/>
<path d="M253.513 175.356L246.74 171.639L229.311 205.173L236.167 209.551L253.513 175.356Z" fill="#F5F5FC"/>
<path d="M263.094 163.957H270.941L271.106 209.386L263.094 209.221V163.957Z" fill="white"/>
<path d="M252.356 178.081L263.755 178.246L263.59 209.551L252.191 209.386L252.356 178.081Z" fill="#F5F5FC"/>
<path d="M175.623 203.687V209.551L221.217 209.881V203.687H175.623Z" fill="#F5F5FC"/>
<path d="M182.726 198.896L182.974 203.604L212.709 203.769L212.461 198.731L182.726 198.896Z" fill="white"/>
<path d="M615.787 409.356C615.787 409.356 602.076 425.545 613.309 425.958C624.543 426.371 647.588 439.421 651.965 427.775C656.343 416.129 665.181 410.264 659.812 408.943C654.443 407.621 649.57 402.17 638.254 403.078C626.938 403.987 615.787 409.356 615.787 409.356Z" fill="#F5F5FC"/>
<path d="M612.236 330.64C612.236 330.64 605.793 331.3 605.793 339.312C605.793 347.324 609.923 416.211 625.616 417.615C635.776 418.524 646.596 418.441 651.965 417.946C654.278 417.698 656.508 410.76 656.921 407.951C658.986 394.24 661.629 360.871 662.207 341.46C662.29 337.495 659.647 332.292 658.243 330.97C650.396 323.784 612.236 330.64 612.236 330.64Z" fill="#E1E6FB"/>
<path d="M688.143 197.327C685.665 195.014 682.196 198.153 683.518 201.374C684.757 204.513 685.665 209.881 680.627 215.663C672.862 224.666 644.862 255.063 645.192 274.638C645.523 294.214 639.41 299.665 645.192 307.099C650.974 314.533 674.267 314.285 680.379 298.426C686.491 282.568 701.937 276.208 701.607 253.576C701.276 230.944 698.633 221.032 695.825 213.268C694.173 208.395 691.364 200.383 688.143 197.327Z" fill="#E9EDFB"/>
<path d="M645.77 327.749C645.77 327.749 648.248 292.314 675.919 276.868C693.264 267.204 694.421 233.67 690.291 226.071" stroke="white" stroke-width="0.862295" stroke-linecap="round" stroke-linejoin="round"/>
<path d="M649.322 342.616C649.322 342.616 658.078 377.473 648.579 405.143Z" fill="#BAC5F4"/>
<path d="M669.228 189.645C666.585 187.415 662.868 190.388 664.272 193.527C665.594 196.501 666.502 201.704 661.216 207.238C652.874 215.828 622.973 244.903 623.221 263.653C623.469 282.402 623.221 293.305 629.416 300.409C635.611 307.512 650.065 301.813 656.591 286.698C663.116 271.582 684.013 265.139 683.683 243.416C683.352 221.776 680.462 212.277 677.488 204.843C675.671 200.135 672.697 192.536 669.228 189.645Z" fill="#BAC5F4"/>
<path d="M634.207 328.492C634.207 328.492 624.46 280.337 648.166 251.346C657.664 239.782 671.706 216.572 671.624 205.339" stroke="white" stroke-width="0.862295" stroke-linecap="round" stroke-linejoin="round"/>
<path d="M595.303 197.327C597.698 195.014 601.167 198.153 599.928 201.374C598.69 204.513 597.864 209.881 602.819 215.663C610.501 224.666 638.254 255.063 638.006 274.638C637.758 294.214 638.006 305.612 632.224 313.129C626.442 320.645 613.144 314.616 607.115 298.757C601.085 282.898 581.757 276.208 582.005 253.576C582.253 230.944 584.978 221.032 587.704 213.268C589.356 208.395 592.082 200.383 595.303 197.327Z" fill="#E9EDFB"/>
<path d="M626.442 329.318C626.442 329.318 637.593 285.541 615.622 256.632C606.867 245.068 592.743 227.888 592.908 216.737" stroke="white" stroke-width="0.862295" stroke-linecap="round" stroke-linejoin="round"/>
<path d="M577.462 273.647C577.462 273.647 554.5 274.143 542.11 246.307C529.72 218.472 557.638 212.772 578.123 227.723C598.607 242.673 590.265 248.868 614.714 262.662C639.163 276.455 633.876 303.795 626.277 311.064C618.678 318.333 604.306 329.649 594.725 300.078C585.143 270.508 577.462 273.647 577.462 273.647Z" fill="#B0C0F4"/>
<path d="M622.065 329.649C622.065 329.649 623.717 259.936 554.582 240.773" stroke="white" stroke-width="0.862295" stroke-linecap="round" stroke-linejoin="round"/>
<path d="M612.236 330.64C612.236 330.64 640.401 326.097 651.387 328.492C662.373 330.887 631.977 333.696 631.977 333.696C631.977 333.696 617.439 334.357 612.236 330.64Z" fill="#BAC5F4"/>
<path d="M270.775 337.991C270.775 337.991 239.058 312.964 233.689 288.432C228.32 263.901 239.966 246.885 256.899 244.242C273.832 241.599 284.156 233.505 343.544 253.658C402.932 273.812 471.323 238.047 471.323 238.047C471.323 238.047 527.16 212.359 554.747 218.637C586.135 225.74 592.825 244.738 584.317 278.686C575.81 312.633 546.901 338.321 546.901 338.321L270.775 337.991Z" fill="#BAC5F4"/>
<path d="M256.403 335.348C256.403 335.348 251.448 335.348 250.622 340.304C249.796 345.26 251.448 360.953 253.926 365.909C256.403 370.865 268.05 370.617 268.05 370.617L551.278 370.039C551.278 370.039 560.694 370.122 562.842 362.605C564.577 356.575 567.054 350.546 567.302 346.333C567.55 341.377 563.998 337.082 559.125 336.422C556.069 336.009 552.93 335.843 549.874 335.843C528.316 335.843 256.403 335.348 256.403 335.348Z" fill="#BAC5F4"/>
<path d="M243.188 412.164L262.185 370.865H277.053L257.229 412.164H243.188Z" fill="white"/>
<path d="M535.585 370.865L552.93 412.99L565.32 412.164L548.8 370.865H535.585Z" fill="white"/>
<path d="M275.649 335.843C275.649 335.843 249.548 315.689 248.309 307.347C246.74 296.444 256.569 280.255 294.729 287.441C332.889 294.627 400.207 314.038 436.715 304.126C473.223 294.214 519.148 252.585 522.452 250.354C525.755 248.124 564.824 228.962 573.662 258.201C582.5 287.441 546.818 335.513 546.818 335.513L275.649 335.843Z" fill="#B0C0F4"/>
<path d="M402.602 0L403.676 55.9188L404.997 55.671L406.154 0H402.602Z" fill="#BAC5F4"/>
<path d="M374.271 101.761C374.271 101.761 363.863 55.0929 405.08 54.5973C444.066 54.1843 434.072 104.156 434.072 104.156L374.271 101.761Z" fill="#BAC5F4"/>
<path d="M373.858 101.761C373.858 101.761 406.98 87.3887 434.072 103.991C434.072 103.991 405.575 119.106 373.858 101.761Z" fill="white"/>
<path d="M389.882 62.9397C389.882 62.9397 375.427 68.3085 378.401 92.8401Z" fill="white"/>
<path d="M373.858 101.761L344.618 206.908L464.22 205.752L434.072 103.991L373.858 101.761Z" fill="url(#paint0_linear)"/>
<path d="M577.544 381.107C577.544 381.107 568.376 414.394 569.863 418.111C571.35 421.828 578.783 422.571 582.087 423.315C585.391 424.058 615.374 431.905 618.43 432.07C621.487 432.235 621.239 432.648 622.56 432.648C623.882 432.648 640.567 427.032 641.145 425.049C641.723 423.067 642.219 421.745 641.723 419.267C641.227 416.789 633.628 385.072 631.563 384.411C629.498 383.75 577.544 381.107 577.544 381.107Z" fill="url(#paint1_linear)"/>
<path d="M575.975 387.054C575.975 387.054 576.636 381.85 577.544 381.107C578.453 380.364 581.013 376.977 583.491 376.812C585.969 376.647 625.864 381.685 627.351 382.016C628.838 382.346 630.82 383.089 631.481 384.328C632.142 385.567 625.699 387.054 624.46 391.019C623.221 394.984 600.424 403.326 594.807 403.904C589.191 404.482 575.975 387.054 575.975 387.054Z" fill="url(#paint2_linear)"/>
<path d="M589.026 378.134C589.026 378.134 593.321 368.8 595.386 367.065C597.203 365.496 603.728 362.11 607.693 367.148C612.153 372.847 611.74 379.455 611.74 380.281C611.74 381.107 607.362 380.364 607.362 380.364C607.362 380.364 608.766 373.591 607.527 371.278C606.371 369.13 605.71 366.57 601.58 366.818C597.451 367.065 595.964 369.378 594.725 371.526C593.651 373.673 592.825 375.903 592.082 378.216C591.916 378.464 589.026 378.134 589.026 378.134Z" fill="#7A5BF5"/>
<path d="M595.881 378.712C595.881 378.712 600.176 367.313 602.241 365.166C604.058 363.266 610.997 359.466 614.961 365.579C619.422 372.517 618.513 380.281 618.513 381.19C618.513 382.098 614.135 381.355 614.135 381.355C614.135 381.355 615.457 373.095 614.218 370.204C613.061 367.561 612.401 364.422 608.353 364.753C604.306 365.083 602.737 367.809 601.498 370.535C600.424 373.178 599.598 375.903 598.855 378.712C598.855 379.125 595.881 378.712 595.881 378.712Z" fill="#7A5BF5"/>
<path d="M622.725 393.332C622.725 393.332 618.926 425.297 619.422 427.445C619.917 429.592 621.156 432.648 622.065 432.648C622.973 432.648 624.46 432.483 623.882 431.74C621.982 429.014 621.156 425.627 621.652 422.406C622.23 417.202 624.46 391.019 624.46 391.019L622.725 393.332Z" fill="#7A5BF5"/>
<path d="M593.816 406.217C595.093 406.217 596.129 405.181 596.129 403.904C596.129 402.627 595.093 401.591 593.816 401.591C592.539 401.591 591.503 402.627 591.503 403.904C591.503 405.181 592.539 406.217 593.816 406.217Z" fill="white"/>
<path d="M435.476 343.938C433.08 339.973 431.181 338.982 425.316 338.817C419.452 338.652 411.688 338.734 411.688 338.734L411.605 347.077C411.605 347.077 418.048 350.794 421.517 352.693C421.682 352.776 422.26 353.106 422.673 353.354C423.251 353.602 423.912 353.85 424.573 354.015C427.959 354.758 431.098 354.345 433.328 352.198C435.724 349.72 437.871 347.903 435.476 343.938Z" fill="#4B44BE"/>
<path d="M391.286 336.587C391.121 336.752 390.543 337.165 390.212 337.413C389.717 337.826 389.304 338.404 388.891 338.9C386.991 341.79 386.082 344.764 387.404 347.655C388.808 350.794 389.717 353.519 394.177 352.693C398.637 351.95 400.372 350.546 402.767 345.26C405.162 339.973 407.971 332.622 407.888 332.622L400.206 329.483C400.124 329.483 394.259 334.109 391.286 336.587Z" fill="#4B44BE"/>
<path d="M412.266 339.065C412.266 339.065 412.348 347.49 411.027 347.655C409.623 347.82 390.79 345.094 383.274 344.764C375.758 344.351 358.742 339.478 350.4 330.062C343.131 321.884 344.288 312.881 349.657 312.881C355.025 312.881 359.899 308.338 373.445 314.781C386.991 321.224 401.363 322.297 409.458 321.719C417.552 321.058 440.184 316.928 441.919 315.607C443.653 314.285 452.161 310.651 463.972 311.89C475.784 313.129 470.167 322.545 467.689 326.179C464.22 331.218 455.96 336.587 449.022 336.835C442.084 337.082 412.266 339.065 412.266 339.065Z" fill="url(#paint3_linear)"/>
<path d="M398.224 192.288C394.259 193.775 389.221 213.433 389.221 213.433L389.138 213.351L388.56 216.076L387.899 219.628L389.221 241.021L402.106 247.464L431.594 255.393L439.771 267.039C439.771 267.039 458.025 285.624 458.19 286.945C458.273 288.267 438.532 294.792 436.632 295.04C432.089 295.701 465.707 287.524 454.886 274.473C450.343 268.856 443.57 252.089 430.272 240.938C422.591 234.496 424.738 216.241 422.012 204.678C418.626 190.223 416.478 185.845 413.092 185.845C410.036 185.845 405.741 189.48 398.224 192.288Z" fill="url(#paint4_linear)"/>
<path d="M440.019 239.039C433.824 233.339 431.759 232.018 426.307 233.917C420.856 235.817 418.213 237.634 410.862 238.791C406.319 239.617 401.611 238.956 397.398 237.139L382.2 238.626C380.3 238.378 358.66 279.016 358.082 287.441C357.751 292.645 369.563 300.657 372.784 301.4C374.106 301.73 376.501 288.928 377.244 287.771L372.288 286.285C373.197 284.054 376.171 278.603 378.153 275.712C378.731 274.803 383.439 267.039 384.1 264.066C384.183 264.314 384.926 269.93 385.587 271.747C386.826 275.051 388.478 276.951 388.478 279.594C388.478 282.237 388.147 292.81 386.247 297.518C384.348 302.226 381.539 313.212 381.539 313.212L430.19 312.964C430.19 312.964 428.455 292.066 429.116 284.88C429.116 284.88 428.372 281.989 429.777 277.777C432.172 270.839 432.833 260.597 432.42 258.945C431.842 256.384 446.709 277.86 450.013 283.228C451.417 285.459 432.833 289.423 431.346 291.158C429.777 292.975 432.915 297.848 432.915 297.848C432.915 297.848 465.211 293.884 465.046 289.01C464.881 284.137 447.205 245.564 440.019 239.039Z" fill="url(#paint5_linear)"/>
<path d="M402.106 180.724C402.106 180.724 393.103 181.055 390.46 190.554C387.817 200.052 387.486 213.268 387.404 215.333C387.321 217.48 388.312 230.201 383.439 235.487C379.227 240.03 380.961 244.49 379.887 248.124L379.392 254.154C379.474 254.897 379.97 255.476 380.713 255.723C381.374 255.889 383.604 254.897 384.017 254.732C389.634 252.502 389.634 250.685 391.782 248.868C393.516 247.381 398.389 243.912 399.876 242.59C401.363 241.186 402.354 240.03 402.437 238.295C402.684 229.54 401.198 221.363 399.298 217.067C397.398 212.772 393.681 205.504 396.737 200.713C399.794 195.922 405.41 191.049 405.741 189.893C406.071 188.736 406.236 194.518 409.623 196.583C413.009 198.648 415.9 201.456 416.974 204.265C417.882 206.578 419.039 210.542 415.818 217.48C412.596 224.336 409.953 233.174 414.496 239.699C419.039 246.225 428.62 253.328 430.19 256.632C431.924 260.266 430.272 268.856 429.942 274.06C429.611 279.264 440.101 265.057 439.771 258.284C439.441 251.511 440.597 248.62 434.072 238.295C427.546 227.97 423.417 210.212 423.251 205.917C423.086 201.622 421.186 189.728 417.304 186.258C413.918 183.368 413.174 180.559 406.319 180.559C404.832 180.477 403.51 180.559 402.106 180.724Z" fill="url(#paint6_linear)"/>
<path opacity="0.07" d="M381.539 324.362L427.133 324.61C427.133 324.61 421.765 328.823 419.204 329.236C416.643 329.649 405.658 335.183 401.528 333.118C398.72 331.548 381.539 324.362 381.539 324.362Z" fill="black"/>
<path opacity="0.07" d="M406.98 221.858C406.98 221.858 411.275 222.932 413.009 220.454C416.974 214.837 413.34 223.345 413.34 223.345C413.34 223.345 412.183 226.649 412.266 228.301C412.348 229.953 407.723 222.106 406.98 221.858Z" fill="black"/>
<path opacity="0.07" d="M389.964 250.767C389.469 251.428 388.643 251.924 388.312 253.576C387.652 256.219 386.908 259.192 385.091 261.918C384.017 263.488 384.596 269.765 386.413 273.647C386.908 274.803 388.56 277.694 388.478 278.355L388.395 284.054H393.268C393.268 284.054 397.481 284.467 396.572 281.081C395.829 278.025 391.864 266.626 394.507 264.148C399.546 259.523 393.186 250.272 395.581 247.298C397.646 244.738 400.537 242.921 400.537 242.012C400.537 241.682 399.794 242.755 399.215 243.086C398.224 243.829 397.729 244.407 396.82 244.903C395.911 245.481 394.507 246.472 393.599 247.216C392.195 248.372 391.038 249.528 389.964 250.767Z" fill="black"/>
<path d="M370.884 287.358C370.884 287.358 370.884 284.385 373.775 284.302C376.666 284.22 438.78 284.302 438.78 284.302C438.78 284.302 441.505 284.633 441.588 286.863C441.671 289.093 441.671 321.884 441.671 321.884C441.671 321.884 441.671 324.445 439.028 324.527C436.384 324.61 373.032 324.61 373.032 324.61C373.032 324.61 370.636 324.032 370.719 321.637C370.719 319.159 370.884 287.358 370.884 287.358Z" fill="white"/>
<path d="M406.401 307.099C407.907 307.099 409.127 305.879 409.127 304.374C409.127 302.868 407.907 301.648 406.401 301.648C404.896 301.648 403.676 302.868 403.676 304.374C403.676 305.879 404.896 307.099 406.401 307.099Z" fill="#76C6E7"/>
</g>
<defs>
<linearGradient id="paint0_linear" x1="404.217" y1="45.082" x2="404.465" y2="228.251" gradientUnits="userSpaceOnUse">
<stop stop-color="white"/>
<stop offset="1" stop-color="white" stop-opacity="0"/>
</linearGradient>
<linearGradient id="paint1_linear" x1="556.463" y1="381.487" x2="626.778" y2="414.055" gradientUnits="userSpaceOnUse">
<stop stop-color="#E5A4ED"/>
<stop offset="1" stop-color="#7A5BF5"/>
</linearGradient>
<linearGradient id="paint2_linear" x1="567.339" y1="372.857" x2="614.074" y2="394.506" gradientUnits="userSpaceOnUse">
<stop stop-color="#E5A4ED"/>
<stop offset="1" stop-color="#7A5BF5"/>
</linearGradient>
<linearGradient id="paint3_linear" x1="471.212" y1="329.508" x2="345.273" y2="329.508" gradientUnits="userSpaceOnUse">
<stop stop-color="#4B45BD"/>
<stop offset="1" stop-color="#58CAEA"/>
</linearGradient>
<linearGradient id="paint4_linear" x1="387.886" y1="240.424" x2="458.137" y2="240.424" gradientUnits="userSpaceOnUse">
<stop stop-color="#F87B58"/>
<stop offset="0.5" stop-color="#F8C548"/>
<stop offset="1" stop-color="#F89C51"/>
</linearGradient>
<linearGradient id="paint5_linear" x1="358.076" y1="273.19" x2="464.966" y2="273.19" gradientUnits="userSpaceOnUse">
<stop stop-color="#E5A4ED"/>
<stop offset="1" stop-color="#7A5BF5"/>
</linearGradient>
<linearGradient id="paint6_linear" x1="379.491" y1="227.787" x2="439.708" y2="227.787" gradientUnits="userSpaceOnUse">
<stop stop-color="#4B45BD"/>
<stop offset="1" stop-color="#58CAEA"/>
</linearGradient>
<clipPath id="clip0">
<rect width="800" height="510.703" fill="white"/>
</clipPath>
</defs>
</svg>
